<?xml version="1.0" standalone="no"?>
<!DOCTYPE svg PUBLIC "-//W3C//DTD SVG 20010904//EN"
 "http://www.w3.org/TR/2001/REC-SVG-20010904/DTD/svg10.dtd">
<svg version="1.0" xmlns="http://www.w3.org/2000/svg"
 width="1200.000000pt" height="1200.000000pt" viewBox="0 0 1200.000000 1200.000000"
 preserveAspectRatio="xMidYMid meet">
<metadata>
Created by potrace 1.11, written by Peter Selinger 2001-2013
</metadata>
<g transform="translate(0.000000,1200.000000) scale(0.100000,-0.100000)"
fill="#000000" stroke="none">
<path d="M5698 11995 c-2 -1 -48 -6 -104 -9 -55 -3 -118 -8 -140 -11 -21 -2
-66 -7 -99 -10 -33 -3 -71 -7 -85 -9 -14 -3 -50 -7 -81 -11 -31 -3 -66 -7 -77
-10 -11 -2 -37 -6 -58 -10 -80 -12 -102 -16 -229 -41 -142 -27 -453 -103 -531
-130 -27 -9 -53 -17 -59 -18 -72 -13 -503 -176 -700 -264 -121 -54 -409 -202
-507 -261 -48 -28 -91 -51 -97 -51 -6 0 -11 -4 -11 -10 0 -5 -4 -10 -10 -10
-13 0 -242 -148 -370 -239 -408 -291 -830 -677 -1110 -1016 -41 -49 -78 -92
-81 -95 -3 -3 -37 -45 -76 -95 -139 -178 -334 -463 -422 -615 -18 -30 -36 -62
-41 -70 -60 -94 -235 -436 -300 -585 -131 -300 -284 -746 -334 -975 -3 -14
-19 -86 -36 -160 -31 -140 -35 -161 -45 -220 -3 -19 -10 -60 -15 -90 -18 -103
-18 -104 -35 -240 -3 -19 -7 -62 -10 -95 -4 -33 -8 -74 -10 -91 -27 -199 -27
-846 0 -1099 20 -189 30 -263 61 -460 64 -408 212 -905 412 -1380 73 -173 225
-469 331 -645 34 -58 68 -114 74 -125 40 -67 228 -341 293 -427 250 -332 570
-676 863 -928 35 -30 69 -60 75 -65 6 -6 61 -50 121 -98 61 -49 118 -94 127
-102 102 -83 441 -307 638 -420 119 -68 500 -265 513 -265 3 0 34 -13 69 -29
227 -104 755 -285 928 -317 14 -3 39 -9 55 -14 17 -5 41 -11 55 -14 14 -3 90
-19 170 -35 80 -16 168 -33 195 -36 28 -4 59 -9 70 -12 11 -3 31 -7 45 -8 24
-3 108 -13 160 -20 14 -2 61 -7 105 -10 44 -4 82 -9 85 -11 15 -8 314 -18 535
-18 220 0 464 9 513 19 9 1 53 6 97 10 44 3 91 8 105 10 14 2 61 9 106 15 44
6 89 12 100 14 31 5 86 15 124 21 115 19 445 93 515 116 17 5 77 23 135 40
170 50 195 58 333 109 180 66 277 106 437 177 186 83 461 231 654 350 176 109
538 360 566 393 3 3 28 23 55 45 431 340 891 838 1202 1300 76 113 223 344
223 350 0 3 11 22 23 43 58 91 194 358 272 531 195 435 338 892 421 1346 9 50
17 97 19 105 4 20 16 99 20 130 2 14 6 43 9 65 10 71 20 156 31 270 26 266 26
785 0 1045 -2 19 -6 64 -9 100 -4 36 -9 81 -11 100 -13 105 -17 131 -26 190
-6 36 -12 76 -14 90 -15 120 -120 575 -163 700 -3 8 -6 22 -8 30 -12 59 -127
381 -196 550 -220 538 -564 1110 -932 1548 -233 278 -531 578 -756 762 -70 58
-100 83 -114 95 -63 58 -552 405 -571 405 -4 0 -19 8 -33 19 -164 116 -660
364 -970 485 -266 104 -718 239 -902 271 -19 3 -51 10 -70 15 -19 5 -55 12
-80 15 -24 4 -47 8 -50 10 -3 2 -56 11 -118 20 -62 9 -121 18 -130 19 -30 6
-141 18 -284 32 -38 3 -89 8 -115 10 -55 5 -710 13 -715 9z"/>
</g>
</svg>
